<svg width="80" height="80" viewBox="0 0 80 80" fill="none" xmlns="http://www.w3.org/2000/svg">
<path d="M47.1167 60.9641V61.0323C46.8937 62.0494 46.3293 62.9595 45.5173 63.6114C44.7054 64.2634 43.6948 64.6178 42.6535 64.6158H36.0935C34.8917 64.6158 33.7391 64.1384 32.8893 63.2886C32.0395 62.4388 31.5621 61.2863 31.5621 60.0845C31.5621 59.9498 34.6052 37.7685 34.6052 37.7685C35.3933 38.7228 36.3878 39.4858 37.5136 40.0001L46.711 44.2604C47.3899 44.6666 47.9526 45.241 48.3447 45.9282C48.7367 46.6153 48.9449 47.392 48.9491 48.1832C48.8744 48.2513 48.9491 49.1975 47.1167 60.9641ZM59.2209 48.5889C60.5063 40.8797 53.8115 37.7019 53.5405 37.5656C53.1348 37.3627 42.3143 33.1024 39.1365 31.3447C35.8906 29.5189 36.7021 25.4614 36.7702 25.0557L37.9875 16.1974C38.4614 12.7486 37.9875 10.1794 36.6355 8.62298C35.4183 7.20287 33.7271 7 32.9157 7H29.535L21.2172 57.8529C20.3375 63.1957 22.2997 66.7793 24.0574 68.8762C26.4237 71.6482 30.0089 73.4075 33.4577 73.4075H44.481C51.0411 73.4075 56.5852 68.201 57.0591 61.5728C57.3302 59.6787 58.1417 54.878 59.2226 48.5889" fill="#F86E32"/>
</svg>
