<svg width="206" height="80" viewBox="0 0 206 80" fill="none" xmlns="http://www.w3.org/2000/svg">
<path d="M126.404 43.6857V43.8886L126.336 44.3625C126.346 44.4581 126.322 44.5541 126.268 44.6336L124.239 56.4683C124.054 57.7385 123.42 58.9005 122.453 59.7439C121.485 60.5873 120.248 61.0564 118.964 61.0663H115.447C114.031 61.0628 112.674 60.4988 111.673 59.4976C110.672 58.4963 110.108 57.1394 110.104 55.7234V55.5887H110.036L112.133 43.1453C112.674 39.9675 114.636 38.1416 117.543 38.1416H121.735L121.803 38.2098C123.066 38.3978 124.219 39.0344 125.051 40.003C125.883 40.9716 126.339 42.2075 126.334 43.4845C126.36 43.5111 126.379 43.5431 126.391 43.5782C126.403 43.6133 126.407 43.6506 126.402 43.6874L126.404 43.6857ZM133.443 58.8347L135.54 45.5132C135.663 44.91 135.754 44.3005 135.811 43.6874V43.5527C135.811 43.2151 135.879 42.8759 135.879 42.5383C135.879 39.0948 134.511 35.7923 132.076 33.3573C129.641 30.9224 126.339 29.5544 122.895 29.5544H116.268C109.777 29.5544 104.164 34.4234 103.285 40.8472V40.9819L103.15 41.1166L100.842 55.3858L100.91 55.454V55.6569C100.856 56.0602 100.833 56.4672 100.842 56.8741C100.842 63.9746 106.657 69.7232 113.691 69.7232H120.724C123.734 69.7256 126.649 68.6706 128.96 66.7424C131.272 64.8143 132.832 62.1355 133.37 59.1739L133.438 58.8363" fill="#F86E32"/>
<path d="M68.7199 41.7935C68.5852 43.0107 68.5852 43.2818 68.3142 43.2818C68.1113 43.6875 67.6374 44.0933 66.8941 44.2961C65.6022 44.5656 54.0449 47.6768 53.9167 47.6768C52.3619 48.1507 51.8198 48.894 51.8198 48.894L53.1052 42.0629C53.1052 42.0629 53.5791 38.1402 58.7857 38.1402H65.4805C66.4948 38.1402 67.3063 38.4778 67.8468 39.0864C68.6518 39.8995 68.7881 41.0486 68.7199 41.7935ZM77.5782 39.4937C77.5799 38.1612 77.3187 36.8414 76.8095 35.6099C76.3003 34.3785 75.5532 33.2596 74.611 32.3173C73.6687 31.375 72.5498 30.6279 71.3184 30.1188C70.0869 29.6096 68.7671 29.3484 67.4345 29.3501H57.4873L56.8787 29.4183C51.1301 29.824 46.1946 34.0162 44.9773 39.6301V39.7648C44.0977 45.6481 42.4082 56.4685 42.34 56.8061C42.069 59.8492 43.0898 62.8923 45.3149 65.3267C46.5975 66.7231 48.1541 67.8401 49.8876 68.608C51.6212 69.376 53.4944 69.7783 55.3904 69.7899H65.8051C69.6596 69.7899 72.9056 66.9497 73.5824 63.0951L74.5286 57.009H68.7199C67.097 57.009 65.6768 57.8886 65.1364 59.4434C65.0061 59.8838 64.7395 60.2716 64.375 60.5509C64.0105 60.8303 63.5668 60.9869 63.1077 60.9982H55.0528C52.753 60.8635 50.8606 59.3071 51.0635 57.5494C51.1982 56.3322 52.0097 55.8583 54.2413 55.1831L70.2747 50.9228C70.3429 50.9228 76.1581 49.1651 76.7667 44.7019C76.8348 44.0933 76.9014 43.8904 76.9695 43.4165C77.0377 43.0789 77.1043 42.605 77.2406 41.7935C77.4847 41.0521 77.5989 40.274 77.5782 39.4937Z" fill="#F86E32"/>
<path d="M196.598 41.7935C196.463 43.0107 196.463 43.2818 196.192 43.2818C195.989 43.6875 195.515 44.0933 194.772 44.2961C193.487 44.5672 181.923 47.6768 181.788 47.6768C180.233 48.1507 179.691 48.894 179.691 48.894L180.977 42.0645C180.977 42.0645 181.451 38.1418 186.657 38.1418H193.352C194.366 38.1418 195.178 38.4794 195.718 39.088C196.462 39.8995 196.665 41.0486 196.598 41.7935ZM205.456 39.4937C205.458 38.1612 205.197 36.8414 204.688 35.6099C204.178 34.3785 203.431 33.2596 202.489 32.3173C201.547 31.375 200.428 30.6279 199.196 30.1188C197.965 29.6096 196.645 29.3484 195.313 29.3501H185.378L184.838 29.4183C179.089 29.824 174.154 34.0162 172.937 39.6301V39.7648C172.057 45.6481 170.367 56.4685 170.299 56.8061C170.028 59.8492 171.043 62.8923 173.274 65.3267C174.557 66.7231 176.113 67.8401 177.847 68.608C179.58 69.376 181.454 69.7783 183.35 69.7899H192.75V69.7218H193.764C195.63 69.7233 197.434 69.0553 198.849 67.8392C200.263 66.6231 201.195 64.9397 201.473 63.0951L202.42 57.009H196.604C195.819 56.9995 195.052 57.2447 194.418 57.7079C193.784 58.1711 193.317 58.8273 193.087 59.5781C192.954 60.0112 192.685 60.3897 192.319 60.6578C191.954 60.9258 191.512 61.0691 191.059 61.0664H183.012C180.712 60.9317 178.82 59.3087 179.023 57.4829C179.157 56.2656 179.969 55.7917 182.201 55.1166L198.227 50.8562C198.296 50.8562 204.111 49.0985 204.719 44.6353C204.788 44.0267 204.854 43.8239 204.922 43.3499C204.99 43.0124 205.057 42.5385 205.193 41.727C205.354 40.9934 205.445 40.2461 205.464 39.4954" fill="#F86E32"/>
<path d="M168.939 34.4219L169.751 29.3501H162.981C157.572 29.553 153.378 37.736 153.378 37.736L154.527 31.2441H144.654L138.434 69.7899H148.24L151.96 47.4058C153.177 42.4687 157.505 39.0198 162.577 39.0198C162.917 39.0088 163.256 39.0317 163.591 39.088C164.866 39.0822 166.096 38.6231 167.063 37.7928C168.029 36.9625 168.668 35.8153 168.866 34.5566L168.934 34.4219" fill="#F86E32"/>
<path d="M26.1167 57.3465V57.4146C25.8937 58.4317 25.3293 59.3418 24.5173 59.9938C23.7054 60.6457 22.6948 61.0001 21.6535 60.9982H15.0935C13.8917 60.9982 12.7391 60.5208 11.8893 59.671C11.0395 58.8212 10.5621 57.6686 10.5621 56.4668C10.5621 56.3321 13.6052 34.1508 13.6052 34.1508C14.3933 35.1051 15.3878 35.8682 16.5136 36.3824L25.711 40.6427C26.3899 41.0489 26.9526 41.6233 27.3447 42.3105C27.7367 42.9977 27.9449 43.7743 27.9491 44.5655C27.8744 44.6336 27.9491 45.5798 26.1167 57.3465ZM38.2209 44.9712C39.5063 37.2621 32.8115 34.0843 32.5405 33.9479C32.1348 33.7451 21.3143 29.4847 18.1365 27.727C14.8906 25.9012 15.7021 21.8437 15.7702 21.438L16.9875 12.5798C17.4614 9.13092 16.9875 6.56175 15.6355 5.00531C14.4183 3.5852 12.7271 3.38232 11.9157 3.38232H8.53498L0.217204 54.2352C-0.662452 59.5781 1.29973 63.1616 3.05742 65.2585C5.42373 68.0305 9.00889 69.7899 12.4577 69.7899H23.481C30.0411 69.7899 35.5852 64.5833 36.0591 57.9551C36.3302 56.0611 37.1417 51.2603 38.2226 44.9712" fill="#F86E32"/>
<path d="M103.418 6.76296L104.838 0H97.8655C95.4866 0.102427 93.2199 1.03993 91.4636 2.6478C89.7073 4.25566 88.5739 6.43103 88.2624 8.79169L88.1942 8.9264L76.5639 80H77.8493C82.853 80 87.0467 76.4165 87.8582 71.4112L89.0073 65.3932L92.4561 43.1453C92.521 42.2051 92.9418 41.3249 93.633 40.6841C94.3241 40.0433 95.2336 39.6901 96.176 39.6965H97.4614L99.0162 29.35H94.6196L97.3251 13.052C97.4598 11.6319 97.799 10.0089 99.6249 9.73789L99.693 9.66972H99.8277C101.925 9.39869 103.142 9.26398 103.411 6.76134" fill="#F86E32"/>
</svg>
